<?xml version="1.0" encoding="UTF-8" standalone="no"?>
<!-- Created with Inkscape (http://www.inkscape.org/) -->

<svg
   width="1024"
   height="768"
   viewBox="0 0 270.93333 203.2"
   version="1.1"
   id="svg1"
   sodipodi:docname="p015Solution.svg"
   inkscape:version="1.3.2 (091e20e, 2023-11-25, custom)"
   xmlns:inkscape="http://www.inkscape.org/namespaces/inkscape"
   xmlns:sodipodi="http://sodipodi.sourceforge.net/DTD/sodipodi-0.dtd"
   xmlns="http://www.w3.org/2000/svg"
   xmlns:svg="http://www.w3.org/2000/svg">
  <sodipodi:namedview
     id="namedview1"
     pagecolor="#ffffff"
     bordercolor="#000000"
     borderopacity="0.25"
     inkscape:showpageshadow="2"
     inkscape:pageopacity="0.0"
     inkscape:pagecheckerboard="0"
     inkscape:deskcolor="#d1d1d1"
     inkscape:document-units="mm"
     inkscape:zoom="1.3879489"
     inkscape:cx="452.46622"
     inkscape:cy="450.665"
     inkscape:window-width="1920"
     inkscape:window-height="1017"
     inkscape:window-x="-8"
     inkscape:window-y="-8"
     inkscape:window-maximized="1"
     inkscape:current-layer="layer1"
     showgrid="true">
    <inkscape:grid
       id="grid1"
       units="mm"
       originx="0"
       originy="0"
       spacingx="0.99999999"
       spacingy="1"
       empcolor="#0099e5"
       empopacity="0.30196078"
       color="#0099e5"
       opacity="0.14901961"
       empspacing="5"
       dotted="false"
       gridanglex="30"
       gridanglez="30"
       visible="true" />
  </sodipodi:namedview>
  <defs
     id="defs1">
    <marker
       style="overflow:visible"
       id="marker46"
       refX="0"
       refY="0"
       orient="auto-start-reverse"
       inkscape:stockid="Triangle arrow"
       markerWidth="1"
       markerHeight="1"
       viewBox="0 0 1 1"
       inkscape:isstock="true"
       inkscape:collect="always"
       preserveAspectRatio="xMidYMid">
      <path
         transform="scale(0.5)"
         style="fill:context-stroke;fill-rule:evenodd;stroke:context-stroke;stroke-width:1pt"
         d="M 5.77,0 -2.88,5 V -5 Z"
         id="path46" />
    </marker>
    <marker
       style="overflow:visible"
       id="ArrowWideHeavy"
       refX="0"
       refY="0"
       orient="auto-start-reverse"
       inkscape:stockid="Wide, heavy arrow"
       markerWidth="1"
       markerHeight="1"
       viewBox="0 0 1 1"
       inkscape:isstock="true"
       inkscape:collect="always"
       preserveAspectRatio="xMidYMid">
      <path
         style="fill:context-stroke;fill-rule:evenodd;stroke:none"
         d="m 1,0 -3,3 h -2 l 3,-3 -3,-3 h 2 z"
         id="path3" />
    </marker>
  </defs>
  <g
     inkscape:label="Layer 1"
     inkscape:groupmode="layer"
     id="layer1">
    <rect
       style="fill:#ffffff;stroke-width:0.52916667;stroke-linecap:round;paint-order:markers fill stroke;fill-opacity:1;stroke:#000000;stroke-opacity:1;stroke-dasharray:none"
       id="rect1"
       width="17.792948"
       height="17.792948"
       x="36.394669"
       y="31.811638" />
    <rect
       style="fill:#ffffff;fill-opacity:1;stroke:#000000;stroke-width:0.529167;stroke-linecap:round;stroke-dasharray:none;stroke-opacity:1;paint-order:markers fill stroke"
       id="rect2"
       width="17.792948"
       height="17.792948"
       x="53.857185"
       y="31.811638" />
    <rect
       style="fill:#ffffff;fill-opacity:1;stroke:#000000;stroke-width:0.529167;stroke-linecap:round;stroke-dasharray:none;stroke-opacity:1;paint-order:markers fill stroke"
       id="rect3"
       width="17.792948"
       height="17.792948"
       x="36.394669"
       y="49.803322" />
    <rect
       style="fill:#ffffff;fill-opacity:1;stroke:#000000;stroke-width:0.529167;stroke-linecap:round;stroke-dasharray:none;stroke-opacity:1;paint-order:markers fill stroke"
       id="rect4"
       width="17.792948"
       height="17.792948"
       x="53.857185"
       y="49.803322" />
    <rect
       style="fill:#ffffff;fill-opacity:1;stroke:#000000;stroke-width:0.529167;stroke-linecap:round;stroke-dasharray:none;stroke-opacity:1;paint-order:markers fill stroke"
       id="rect5"
       width="17.792948"
       height="17.792948"
       x="128.46973"
       y="31.811638" />
    <rect
       style="fill:#ffffff;fill-opacity:1;stroke:#000000;stroke-width:0.529167;stroke-linecap:round;stroke-dasharray:none;stroke-opacity:1;paint-order:markers fill stroke"
       id="rect6"
       width="17.792948"
       height="17.792948"
       x="145.93199"
       y="31.811638" />
    <rect
       style="fill:#ffffff;fill-opacity:1;stroke:#000000;stroke-width:0.529167;stroke-linecap:round;stroke-dasharray:none;stroke-opacity:1;paint-order:markers fill stroke"
       id="rect7"
       width="17.792948"
       height="17.792948"
       x="128.46973"
       y="49.803322" />
    <rect
       style="fill:#ffffff;fill-opacity:1;stroke:#000000;stroke-width:0.529167;stroke-linecap:round;stroke-dasharray:none;stroke-opacity:1;paint-order:markers fill stroke"
       id="rect8"
       width="17.792948"
       height="17.792948"
       x="145.93199"
       y="49.803322" />
    <text
       xml:space="preserve"
       style="font-size:7.05556px;font-family:Monospace;-inkscape-font-specification:Monospace;text-align:center;text-anchor:middle;fill:#000000;fill-opacity:1;stroke:#000000;stroke-width:0.264583;stroke-linecap:round;stroke-dasharray:none;stroke-opacity:1;paint-order:markers fill stroke"
       x="58.14185"
       y="15.463921"
       id="text8"><tspan
         sodipodi:role="line"
         id="tspan8"
         style="fill:#000000;fill-opacity:1;stroke:#000000;stroke-width:0.264583;stroke-dasharray:none;stroke-opacity:1"
         x="58.14185"
         y="15.463921">Bruteforce Solution</tspan></text>
    <circle
       style="fill:#ffffff;fill-opacity:1;stroke:#000000;stroke-width:0.529167;stroke-linecap:round;stroke-dasharray:none;stroke-opacity:1;paint-order:markers fill stroke"
       id="path8"
       cx="77.586006"
       cy="71.676506"
       r="6.6720152" />
    <text
       xml:space="preserve"
       style="font-size:4.23333px;font-family:Monospace;-inkscape-font-specification:Monospace;text-align:center;text-anchor:middle;fill:#000000;fill-opacity:1;stroke:#000000;stroke-width:0.264583;stroke-linecap:round;stroke-dasharray:none;stroke-opacity:1;paint-order:markers fill stroke"
       x="77.415123"
       y="73.264015"
       id="text9"><tspan
         sodipodi:role="line"
         id="tspan9"
         style="font-size:4.23333px;fill:#000000;fill-opacity:1;stroke-width:0.264583;stroke-dasharray:none"
         x="77.415123"
         y="73.264015">2,2</tspan></text>
    <circle
       style="fill:#ffffff;fill-opacity:1;stroke:#000000;stroke-width:0.529167;stroke-linecap:round;stroke-dasharray:none;stroke-opacity:1;paint-order:markers fill stroke"
       id="circle9"
       cx="31.548462"
       cy="27.226463"
       r="6.6720152" />
    <text
       xml:space="preserve"
       style="font-size:4.23333px;font-family:Monospace;-inkscape-font-specification:Monospace;text-align:center;text-anchor:middle;fill:#000000;fill-opacity:1;stroke:#000000;stroke-width:0.26458333;stroke-linecap:round;stroke-dasharray:none;stroke-opacity:1;paint-order:markers fill stroke"
       x="31.377579"
       y="28.284805"
       id="text10"><tspan
         sodipodi:role="line"
         id="tspan10"
         style="font-size:4.23333px;fill:#000000;fill-opacity:1;stroke-width:0.26458333;stroke-dasharray:none"
         x="31.377579"
         y="28.284805">0,0</tspan></text>
    <path
       style="fill:none;fill-opacity:1;stroke:#000000;stroke-width:1.32291667;stroke-linecap:round;stroke-dasharray:none;stroke-opacity:1;paint-order:normal;marker-end:url(#ArrowWideHeavy)"
       d="m 36.36097,31.811634 c 17.253767,0 17.253767,0 17.253767,0"
       id="path10" />
    <path
       style="fill:none;fill-opacity:1;stroke:#000000;stroke-width:1.32291667;stroke-linecap:round;stroke-dasharray:none;stroke-opacity:1;paint-order:normal;marker-end:url(#ArrowWideHeavy)"
       d="M 54.186296,32.502247 V 48.991654"
       id="path11" />
    <path
       style="fill:none;fill-opacity:1;stroke:#000000;stroke-width:1.32291667;stroke-linecap:round;stroke-dasharray:none;stroke-opacity:1;marker-end:url(#ArrowWideHeavy);paint-order:normal"
       d="m 54.352648,49.803312 c 17.253767,0 17.253767,0 17.253767,0"
       id="path12" />
    <path
       style="fill:none;fill-opacity:1;stroke:#000000;stroke-width:1.32291667;stroke-linecap:round;stroke-dasharray:none;stroke-opacity:1;marker-end:url(#ArrowWideHeavy);paint-order:normal"
       d="M 71.648807,51.023092 V 67.512499"
       id="path13" />
    <text
       xml:space="preserve"
       style="font-size:4.23333px;font-family:Monospace;-inkscape-font-specification:Monospace;text-align:center;text-anchor:middle;fill:#000000;fill-opacity:1;stroke:none;stroke-width:0.264583;stroke-linecap:round;stroke-dasharray:none;stroke-opacity:1;paint-order:markers fill stroke"
       x="59.200184"
       y="87.959816"
       id="text13"><tspan
         sodipodi:role="line"
         id="tspan13"
         style="font-size:4.23333px;fill:#000000;fill-opacity:1;stroke:none;stroke-width:0.264583;stroke-dasharray:none;stroke-opacity:1"
         x="59.200184"
         y="87.959816">The solution is to try</tspan><tspan
         sodipodi:role="line"
         style="font-size:4.23333px;fill:#000000;fill-opacity:1;stroke:none;stroke-width:0.264583;stroke-dasharray:none;stroke-opacity:1"
         x="59.200184"
         y="93.25148"
         id="tspan17">to go the bottom right corner</tspan><tspan
         sodipodi:role="line"
         style="font-size:4.23333px;fill:#000000;fill-opacity:1;stroke:none;stroke-width:0.264583;stroke-dasharray:none;stroke-opacity:1"
         x="59.200184"
         y="98.543137"
         id="tspan18">by trying all routes possible</tspan><tspan
         sodipodi:role="line"
         style="font-size:4.23333px;fill:#000000;fill-opacity:1;stroke:none;stroke-width:0.264583;stroke-dasharray:none;stroke-opacity:1"
         x="60.474525"
         y="103.8348"
         id="tspan19">by moving either down or right. </tspan></text>
    <text
       xml:space="preserve"
       style="font-size:4.23333px;font-family:Monospace;-inkscape-font-specification:Monospace;text-align:center;text-anchor:middle;fill:#000000;fill-opacity:1;stroke:#000000;stroke-width:0.264583;stroke-linecap:round;stroke-dasharray:none;stroke-opacity:1;paint-order:markers fill stroke"
       x="25.251854"
       y="50.781792"
       id="text14"><tspan
         sodipodi:role="line"
         id="tspan14"
         style="font-size:4.23333px;fill:#000000;fill-opacity:1;stroke:#000000;stroke-width:0.264583;stroke-dasharray:none;stroke-opacity:1"
         x="25.251854"
         y="50.781792">f(0+1, 0)</tspan></text>
    <text
       xml:space="preserve"
       style="font-size:4.23333px;font-family:Monospace;-inkscape-font-specification:Monospace;text-align:center;text-anchor:middle;fill:#000000;fill-opacity:1;stroke:#000000;stroke-width:0.264583;stroke-linecap:round;stroke-dasharray:none;stroke-opacity:1;paint-order:markers fill stroke"
       x="53.828407"
       y="26.973131"
       id="text15"><tspan
         sodipodi:role="line"
         id="tspan15"
         style="font-size:4.23333px;fill:#000000;fill-opacity:1;stroke:#000000;stroke-width:0.264583;stroke-dasharray:none;stroke-opacity:1"
         x="53.828407"
         y="26.973131">f(0, 0+1)</tspan></text>
    <text
       xml:space="preserve"
       style="font-size:4.23333px;font-family:Monospace;-inkscape-font-specification:Monospace;text-align:center;text-anchor:middle;fill:#000000;fill-opacity:1;stroke:#000000;stroke-width:0.264583;stroke-linecap:round;stroke-dasharray:none;stroke-opacity:1;paint-order:markers fill stroke"
       x="22.606018"
       y="68.244308"
       id="text20"><tspan
         sodipodi:role="line"
         id="tspan20"
         style="font-size:4.23333px;fill:#000000;fill-opacity:1;stroke:#000000;stroke-width:0.264583;stroke-dasharray:none;stroke-opacity:1"
         x="22.606018"
         y="68.244308">f(0+1+1, 0)</tspan></text>
    <text
       xml:space="preserve"
       style="font-size:4.23333px;font-family:Monospace;-inkscape-font-specification:Monospace;text-align:center;text-anchor:middle;fill:#000000;fill-opacity:1;stroke:#000000;stroke-width:0.264583;stroke-linecap:round;stroke-dasharray:none;stroke-opacity:1;paint-order:markers fill stroke"
       x="84.520103"
       y="31.206467"
       id="text21"><tspan
         sodipodi:role="line"
         id="tspan21"
         style="font-size:4.23333px;fill:#000000;fill-opacity:1;stroke:#000000;stroke-width:0.264583;stroke-dasharray:none;stroke-opacity:1"
         x="84.520103"
         y="31.206467">f(0, 0+1+1)</tspan></text>
    <text
       xml:space="preserve"
       style="font-size:4.23333px;font-family:Monospace;-inkscape-font-specification:Monospace;text-align:center;text-anchor:middle;fill:#000000;fill-opacity:1;stroke:none;stroke-width:0.264583;stroke-linecap:round;stroke-dasharray:none;stroke-opacity:1;paint-order:markers fill stroke"
       x="59.200184"
       y="113.35981"
       id="text25"><tspan
         sodipodi:role="line"
         style="font-size:4.23333px;fill:#000000;fill-opacity:1;stroke:none;stroke-width:0.264583;stroke-dasharray:none;stroke-opacity:1"
         x="59.200184"
         y="113.35981"
         id="tspan25">Everytime we reach the bottom</tspan><tspan
         sodipodi:role="line"
         style="font-size:4.23333px;fill:#000000;fill-opacity:1;stroke:none;stroke-width:0.264583;stroke-dasharray:none;stroke-opacity:1"
         x="59.200184"
         y="118.65147"
         id="tspan28">right corner, we increment the</tspan><tspan
         sodipodi:role="line"
         style="font-size:4.23333px;fill:#000000;fill-opacity:1;stroke:none;stroke-width:0.264583;stroke-dasharray:none;stroke-opacity:1"
         x="59.200184"
         y="123.94313"
         id="tspan29">routes counter.</tspan></text>
    <text
       xml:space="preserve"
       style="font-size:4.23333px;font-family:Monospace;-inkscape-font-specification:Monospace;text-align:center;text-anchor:middle;fill:#000000;fill-opacity:1;stroke:none;stroke-width:0.264583;stroke-linecap:round;stroke-dasharray:none;stroke-opacity:1;paint-order:markers fill stroke"
       x="59.200184"
       y="132.9389"
       id="text32"><tspan
         sodipodi:role="line"
         style="font-size:4.23333px;fill:#000000;fill-opacity:1;stroke:none;stroke-width:0.264583;stroke-dasharray:none;stroke-opacity:1"
         x="59.200184"
         y="132.9389"
         id="tspan32">After we tried all the possible</tspan><tspan
         sodipodi:role="line"
         style="font-size:4.23333px;fill:#000000;fill-opacity:1;stroke:none;stroke-width:0.264583;stroke-dasharray:none;stroke-opacity:1"
         x="59.200184"
         y="138.23056"
         id="tspan34">routes, we can eiher return or</tspan><tspan
         sodipodi:role="line"
         style="font-size:4.23333px;fill:#000000;fill-opacity:1;stroke:none;stroke-width:0.264583;stroke-dasharray:none;stroke-opacity:1"
         x="59.200184"
         y="143.52223"
         id="tspan35">inspect the routes counter.</tspan></text>
    <text
       xml:space="preserve"
       style="font-size:7.05556px;font-family:Monospace;-inkscape-font-specification:Monospace;text-align:center;text-anchor:middle;fill:#000000;fill-opacity:1;stroke:#000000;stroke-width:0.264583;stroke-linecap:round;stroke-dasharray:none;stroke-opacity:1;paint-order:markers fill stroke"
       x="151.80405"
       y="15.463921"
       id="text36"><tspan
         sodipodi:role="line"
         id="tspan36"
         style="fill:#000000;fill-opacity:1;stroke:#000000;stroke-width:0.264583;stroke-dasharray:none;stroke-opacity:1"
         x="151.80405"
         y="15.463921">Optimized Solution</tspan></text>
    <circle
       style="fill:#ffffff;fill-opacity:1;stroke:#000000;stroke-width:0.529167;stroke-linecap:round;stroke-dasharray:none;stroke-opacity:1;paint-order:markers fill stroke"
       id="circle36"
       cx="163.83971"
       cy="67.443169"
       r="6.6720152" />
    <text
       xml:space="preserve"
       style="font-size:4.23333px;font-family:Monospace;-inkscape-font-specification:Monospace;text-align:center;text-anchor:middle;fill:#000000;fill-opacity:1;stroke:#000000;stroke-width:0.264583;stroke-linecap:round;stroke-dasharray:none;stroke-opacity:1;paint-order:markers fill stroke"
       x="163.66885"
       y="69.030678"
       id="text37"><tspan
         sodipodi:role="line"
         id="tspan37"
         style="font-size:4.23333px;fill:#000000;fill-opacity:1;stroke-width:0.264583;stroke-dasharray:none"
         x="163.66885"
         y="69.030678">1</tspan></text>
    <circle
       style="fill:#ffffff;fill-opacity:1;stroke:#000000;stroke-width:0.529167;stroke-linecap:round;stroke-dasharray:none;stroke-opacity:1;paint-order:markers fill stroke"
       id="circle37"
       cx="145.84828"
       cy="67.443169"
       r="6.6720152" />
    <text
       xml:space="preserve"
       style="font-size:4.23333px;font-family:Monospace;-inkscape-font-specification:Monospace;text-align:center;text-anchor:middle;fill:#000000;fill-opacity:1;stroke:#000000;stroke-width:0.264583;stroke-linecap:round;stroke-dasharray:none;stroke-opacity:1;paint-order:markers fill stroke"
       x="145.67743"
       y="69.030678"
       id="text38"><tspan
         sodipodi:role="line"
         id="tspan38"
         style="font-size:4.23333px;fill:#000000;fill-opacity:1;stroke-width:0.264583;stroke-dasharray:none"
         x="145.67743"
         y="69.030678">1</tspan></text>
    <circle
       style="fill:#ffffff;fill-opacity:1;stroke:#000000;stroke-width:0.529167;stroke-linecap:round;stroke-dasharray:none;stroke-opacity:1;paint-order:markers fill stroke"
       id="circle38"
       cx="128.38602"
       cy="67.443169"
       r="6.6720152" />
    <text
       xml:space="preserve"
       style="font-size:4.23333px;font-family:Monospace;-inkscape-font-specification:Monospace;text-align:center;text-anchor:middle;fill:#000000;fill-opacity:1;stroke:#000000;stroke-width:0.264583;stroke-linecap:round;stroke-dasharray:none;stroke-opacity:1;paint-order:markers fill stroke"
       x="128.21516"
       y="69.030678"
       id="text39"><tspan
         sodipodi:role="line"
         id="tspan39"
         style="font-size:4.23333px;fill:#000000;fill-opacity:1;stroke-width:0.264583;stroke-dasharray:none"
         x="128.21516"
         y="69.030678">1</tspan></text>
    <circle
       style="fill:#ffffff;fill-opacity:1;stroke:#000000;stroke-width:0.529167;stroke-linecap:round;stroke-dasharray:none;stroke-opacity:1;paint-order:markers fill stroke"
       id="circle39"
       cx="128.38602"
       cy="49.980652"
       r="6.6720152" />
    <text
       xml:space="preserve"
       style="font-size:4.23333px;font-family:Monospace;-inkscape-font-specification:Monospace;text-align:center;text-anchor:middle;fill:#000000;fill-opacity:1;stroke:#000000;stroke-width:0.264583;stroke-linecap:round;stroke-dasharray:none;stroke-opacity:1;paint-order:markers fill stroke"
       x="128.21516"
       y="51.568161"
       id="text40"><tspan
         sodipodi:role="line"
         id="tspan40"
         style="font-size:4.23333px;fill:#000000;fill-opacity:1;stroke-width:0.264583;stroke-dasharray:none"
         x="128.21516"
         y="51.568161">3</tspan></text>
    <circle
       style="fill:#ffffff;fill-opacity:1;stroke:#000000;stroke-width:0.529167;stroke-linecap:round;stroke-dasharray:none;stroke-opacity:1;paint-order:markers fill stroke"
       id="circle40"
       cx="145.84828"
       cy="49.980652"
       r="6.6720152" />
    <text
       xml:space="preserve"
       style="font-size:4.23333px;font-family:Monospace;-inkscape-font-specification:Monospace;text-align:center;text-anchor:middle;fill:#000000;fill-opacity:1;stroke:#000000;stroke-width:0.264583;stroke-linecap:round;stroke-dasharray:none;stroke-opacity:1;paint-order:markers fill stroke"
       x="145.67743"
       y="51.568161"
       id="text41"><tspan
         sodipodi:role="line"
         id="tspan41"
         style="font-size:4.23333px;fill:#000000;fill-opacity:1;stroke-width:0.264583;stroke-dasharray:none"
         x="145.67743"
         y="51.568161">2</tspan></text>
    <circle
       style="fill:#ffffff;fill-opacity:1;stroke:#000000;stroke-width:0.529167;stroke-linecap:round;stroke-dasharray:none;stroke-opacity:1;paint-order:markers fill stroke"
       id="circle41"
       cx="163.83971"
       cy="49.980652"
       r="6.6720152" />
    <text
       xml:space="preserve"
       style="font-size:4.23333px;font-family:Monospace;-inkscape-font-specification:Monospace;text-align:center;text-anchor:middle;fill:#000000;fill-opacity:1;stroke:#000000;stroke-width:0.264583;stroke-linecap:round;stroke-dasharray:none;stroke-opacity:1;paint-order:markers fill stroke"
       x="163.66885"
       y="51.568161"
       id="text42"><tspan
         sodipodi:role="line"
         id="tspan42"
         style="font-size:4.23333px;fill:#000000;fill-opacity:1;stroke-width:0.264583;stroke-dasharray:none"
         x="163.66885"
         y="51.568161">1</tspan></text>
    <circle
       style="fill:#ffffff;fill-opacity:1;stroke:#000000;stroke-width:0.529167;stroke-linecap:round;stroke-dasharray:none;stroke-opacity:1;paint-order:markers fill stroke"
       id="circle42"
       cx="163.83971"
       cy="31.988968"
       r="6.6720152" />
    <text
       xml:space="preserve"
       style="font-size:4.23333px;font-family:Monospace;-inkscape-font-specification:Monospace;text-align:center;text-anchor:middle;fill:#000000;fill-opacity:1;stroke:#000000;stroke-width:0.264583;stroke-linecap:round;stroke-dasharray:none;stroke-opacity:1;paint-order:markers fill stroke"
       x="163.66885"
       y="33.576477"
       id="text43"><tspan
         sodipodi:role="line"
         id="tspan43"
         style="font-size:4.23333px;fill:#000000;fill-opacity:1;stroke-width:0.264583;stroke-dasharray:none"
         x="163.66885"
         y="33.576477">1</tspan></text>
    <circle
       style="fill:#ffffff;fill-opacity:1;stroke:#000000;stroke-width:0.529167;stroke-linecap:round;stroke-dasharray:none;stroke-opacity:1;paint-order:markers fill stroke"
       id="circle43"
       cx="145.84828"
       cy="31.988968"
       r="6.6720152" />
    <text
       xml:space="preserve"
       style="font-size:4.23333px;font-family:Monospace;-inkscape-font-specification:Monospace;text-align:center;text-anchor:middle;fill:#000000;fill-opacity:1;stroke:#000000;stroke-width:0.264583;stroke-linecap:round;stroke-dasharray:none;stroke-opacity:1;paint-order:markers fill stroke"
       x="145.67743"
       y="33.576477"
       id="text44"><tspan
         sodipodi:role="line"
         id="tspan44"
         style="font-size:4.23333px;fill:#000000;fill-opacity:1;stroke-width:0.264583;stroke-dasharray:none"
         x="145.67743"
         y="33.576477">3</tspan></text>
    <circle
       style="fill:#ffffff;fill-opacity:1;stroke:#000000;stroke-width:0.529167;stroke-linecap:round;stroke-dasharray:none;stroke-opacity:1;paint-order:markers fill stroke"
       id="circle44"
       cx="128.38602"
       cy="31.988968"
       r="6.6720152" />
    <text
       xml:space="preserve"
       style="font-size:4.23333px;font-family:Monospace;-inkscape-font-specification:Monospace;text-align:center;text-anchor:middle;fill:#000000;fill-opacity:1;stroke:#000000;stroke-width:0.264583;stroke-linecap:round;stroke-dasharray:none;stroke-opacity:1;paint-order:markers fill stroke"
       x="128.21516"
       y="33.576477"
       id="text45"><tspan
         sodipodi:role="line"
         id="tspan45"
         style="font-size:4.23333px;fill:#000000;fill-opacity:1;stroke-width:0.264583;stroke-dasharray:none"
         x="128.21516"
         y="33.576477">6</tspan></text>
    <path
       style="fill:none;fill-opacity:1;stroke:#000000;stroke-width:1.32292;stroke-linecap:round;stroke-dasharray:none;stroke-opacity:1;marker-start:url(#marker46);paint-order:normal"
       d="m 175.72271,67.397534 c 23.45434,0 23.45434,0 23.45434,0"
       id="path45" />
    <text
       xml:space="preserve"
       style="font-size:4.23333px;font-family:Monospace;-inkscape-font-specification:Monospace;text-align:center;text-anchor:middle;fill:#000000;fill-opacity:1;stroke:none;stroke-width:0.264583;stroke-linecap:round;stroke-dasharray:none;stroke-opacity:1;paint-order:markers fill stroke"
       x="221.31308"
       y="68.818916"
       id="text49"><tspan
         sodipodi:role="line"
         style="font-size:4.23333px;fill:#000000;fill-opacity:1;stroke:none;stroke-width:0.264583;stroke-dasharray:none;stroke-opacity:1"
         x="221.31308"
         y="68.818916"
         id="tspan49">Base case f(2,2)</tspan></text>
    <text
       xml:space="preserve"
       style="font-size:4.23333px;font-family:Monospace;-inkscape-font-specification:Monospace;text-align:center;text-anchor:middle;fill:#000000;fill-opacity:1;stroke:none;stroke-width:0.264583;stroke-linecap:round;stroke-dasharray:none;stroke-opacity:1;paint-order:markers fill stroke"
       x="154.44984"
       y="87.959816"
       id="text55"><tspan
         sodipodi:role="line"
         style="font-size:4.23333px;fill:#000000;fill-opacity:1;stroke:none;stroke-width:0.264583;stroke-dasharray:none;stroke-opacity:1"
         x="154.44984"
         y="87.959816"
         id="tspan55">The solution has similarity to</tspan><tspan
         sodipodi:role="line"
         style="font-size:4.23333px;fill:#000000;fill-opacity:1;stroke:none;stroke-width:0.264583;stroke-dasharray:none;stroke-opacity:1"
         x="154.44984"
         y="93.25148"
         id="tspan63">the brute force solution, that is,</tspan><tspan
         sodipodi:role="line"
         style="font-size:4.23333px;fill:#000000;fill-opacity:1;stroke:none;stroke-width:0.264583;stroke-dasharray:none;stroke-opacity:1"
         x="154.44984"
         y="98.543137"
         id="tspan5">to get the total amount of routes</tspan><tspan
         sodipodi:role="line"
         style="font-size:4.23333px;fill:#000000;fill-opacity:1;stroke:none;stroke-width:0.264583;stroke-dasharray:none;stroke-opacity:1"
         x="154.44984"
         y="103.8348"
         id="tspan6">from the current location to the</tspan><tspan
         sodipodi:role="line"
         style="font-size:4.23333px;fill:#000000;fill-opacity:1;stroke:none;stroke-width:0.264583;stroke-dasharray:none;stroke-opacity:1"
         x="154.44984"
         y="109.12646"
         id="tspan7">base case or target location, we </tspan><tspan
         sodipodi:role="line"
         style="font-size:4.23333px;fill:#000000;fill-opacity:1;stroke:none;stroke-width:0.264583;stroke-dasharray:none;stroke-opacity:1"
         x="154.44984"
         y="114.41813"
         id="tspan11">first calculate the total amount of</tspan><tspan
         sodipodi:role="line"
         style="font-size:4.23333px;fill:#000000;fill-opacity:1;stroke:none;stroke-width:0.264583;stroke-dasharray:none;stroke-opacity:1"
         x="154.44984"
         y="119.70979"
         id="tspan12">routes the neighbor locations has.</tspan></text>
    <text
       xml:space="preserve"
       style="font-size:4.23333px;font-family:Monospace;-inkscape-font-specification:Monospace;text-align:center;text-anchor:middle;fill:#000000;fill-opacity:1;stroke:none;stroke-width:0.264583;stroke-linecap:round;stroke-dasharray:none;stroke-opacity:1;paint-order:markers fill stroke"
       x="154.44984"
       y="128.17647"
       id="text69"><tspan
         sodipodi:role="line"
         style="font-size:4.23333px;fill:#000000;fill-opacity:1;stroke:none;stroke-width:0.264583;stroke-dasharray:none;stroke-opacity:1"
         x="154.44984"
         y="128.17647"
         id="tspan69">For example, to calculate how many</tspan><tspan
         sodipodi:role="line"
         style="font-size:4.23333px;fill:#000000;fill-opacity:1;stroke:none;stroke-width:0.264583;stroke-dasharray:none;stroke-opacity:1"
         x="154.44984"
         y="133.46812"
         id="tspan77">routes it will take from f(0,0) to</tspan><tspan
         sodipodi:role="line"
         style="font-size:4.23333px;fill:#000000;fill-opacity:1;stroke:none;stroke-width:0.264583;stroke-dasharray:none;stroke-opacity:1"
         x="154.44984"
         y="138.7598"
         id="tspan78">reach f(2,2), we first calculate how</tspan><tspan
         sodipodi:role="line"
         style="font-size:4.23333px;fill:#000000;fill-opacity:1;stroke:none;stroke-width:0.264583;stroke-dasharray:none;stroke-opacity:1"
         x="154.44984"
         y="144.05145"
         id="tspan79">many routes it will take for f(0+1, 0)</tspan><tspan
         sodipodi:role="line"
         style="font-size:4.23333px;fill:#000000;fill-opacity:1;stroke:none;stroke-width:0.264583;stroke-dasharray:none;stroke-opacity:1"
         x="154.44984"
         y="149.34312"
         id="tspan80">and f(0, 0+1) to reach f(2,2).</tspan></text>
    <path
       style="fill:none;fill-opacity:1;stroke:#000000;stroke-width:1.32292;stroke-linecap:round;stroke-dasharray:none;stroke-opacity:1;marker-start:url(#marker46);paint-order:normal"
       d="M 152.69384,46.194689 C 189.86649,36.28198 189.86649,36.28198 189.86649,36.28198"
       id="path74" />
    <path
       style="fill:none;fill-opacity:1;stroke:#000000;stroke-width:1.32292;stroke-linecap:round;stroke-dasharray:none;stroke-opacity:1;marker-start:url(#marker46);paint-order:normal"
       d="m 135.87577,27.555767 c 69.57958,-4.956355 69.57958,-4.956355 69.57958,-4.956355"
       id="path75" />
    <text
       xml:space="preserve"
       style="font-size:4.23333px;font-family:Monospace;-inkscape-font-specification:Monospace;text-align:center;text-anchor:middle;fill:#000000;fill-opacity:1;stroke:none;stroke-width:0.264583;stroke-linecap:round;stroke-dasharray:none;stroke-opacity:1;paint-order:markers fill stroke"
       x="199.84431"
       y="37.43082"
       id="text75"><tspan
         sodipodi:role="line"
         style="font-size:4.23333px;fill:#000000;fill-opacity:1;stroke:none;stroke-width:0.264583;stroke-dasharray:none;stroke-opacity:1"
         x="199.84431"
         y="37.43082"
         id="tspan75">f(1,1)</tspan></text>
    <text
       xml:space="preserve"
       style="font-size:4.23333px;font-family:Monospace;-inkscape-font-specification:Monospace;text-align:center;text-anchor:middle;fill:#000000;fill-opacity:1;stroke:none;stroke-width:0.264583;stroke-linecap:round;stroke-dasharray:none;stroke-opacity:1;paint-order:markers fill stroke"
       x="214.33212"
       y="23.557623"
       id="text76"><tspan
         sodipodi:role="line"
         style="font-size:4.23333px;fill:#000000;fill-opacity:1;stroke:none;stroke-width:0.264583;stroke-dasharray:none;stroke-opacity:1"
         x="214.33212"
         y="23.557623"
         id="tspan76">f(0,0)</tspan></text>
    <text
       xml:space="preserve"
       style="font-size:4.23333px;font-family:Monospace;-inkscape-font-specification:Monospace;text-align:center;text-anchor:middle;fill:#000000;fill-opacity:1;stroke:none;stroke-width:0.264583;stroke-linecap:round;stroke-dasharray:none;stroke-opacity:1;paint-order:markers fill stroke"
       x="154.44984"
       y="158.33856"
       id="text85"><tspan
         sodipodi:role="line"
         style="font-size:4.23333px;fill:#000000;fill-opacity:1;stroke:none;stroke-width:0.264583;stroke-dasharray:none;stroke-opacity:1"
         x="154.44984"
         y="158.33856"
         id="tspan89">Same is true for all f(a,b), such that</tspan><tspan
         sodipodi:role="line"
         style="font-size:4.23333px;fill:#000000;fill-opacity:1;stroke:none;stroke-width:0.264583;stroke-dasharray:none;stroke-opacity:1"
         x="154.44984"
         y="163.63022"
         id="tspan90">calculating the total routes for f(a,b)</tspan><tspan
         sodipodi:role="line"
         style="font-size:4.23333px;fill:#000000;fill-opacity:1;stroke:none;stroke-width:0.264583;stroke-dasharray:none;stroke-opacity:1"
         x="154.44984"
         y="168.92189"
         id="tspan91">requires calculating f(a+1, b) and</tspan><tspan
         sodipodi:role="line"
         style="font-size:4.23333px;fill:#000000;fill-opacity:1;stroke:none;stroke-width:0.264583;stroke-dasharray:none;stroke-opacity:1"
         x="154.44984"
         y="174.21355"
         id="tspan92">f(a, b+1), first.</tspan></text>
  </g>
  <g
     inkscape:groupmode="layer"
     id="layer3"
     inkscape:label="Layer 2">
    <g
       transform="matrix(0.26293781,0,0,0.26290836,-46.055984,171.3573)"
       id="g287"
       inkscape:export-filename="/mnt/hgfs/Bov/Documents/Work/2007/cc/identity/srr buttons/big/by-sa.png"
       inkscape:export-xdpi="300.23013"
       inkscape:export-ydpi="300.23013">
      <path
         id="path3817_2_"
         nodetypes="ccccccc"
         d="m 182.23532,75.39014 114.06396,0.20312 c 1.59375,0 3.01758,-0.23682 3.01758,3.18018 l -0.13965,37.56689 H 179.3569 V 78.63379 c 0,-1.68457 0.16309,-3.24365 2.87842,-3.24365 z"
         style="fill:#aab2ab" />
      <g
         id="g5908_2_"
         transform="matrix(0.872921,0,0,0.872921,50.12536,143.2144)">
        <path
           id="path5906_2_"
           cx="296.35416"
           ry="22.939548"
           cy="264.3577"
           type="arc"
           rx="22.939548"
           d="m 187.20944,-55.6792 c 0.006,8.68024 -7.02786,15.72095 -15.7081,15.72708 -8.68021,0.005 -15.72205,-7.02786 -15.72708,-15.70804 0,-0.0067 0,-0.01233 0,-0.01904 -0.005,-8.68134 7.02783,-15.72205 15.70807,-15.72711 8.68134,-0.0056 15.72208,7.02789 15.72711,15.70807 0,0.0056 0,0.01233 0,0.01904 z"
           style="fill:#ffffff" />
        <g
           id="g5706_2_"
           transform="translate(-289.6157,99.0653)">
          <path
             id="path5708_2_"
             d="m 473.88455,-167.54724 c 3.48541,3.48596 5.22839,7.75391 5.22839,12.80273 0,5.04938 -1.7128,9.27148 -5.13834,12.66736 -3.63531,3.5766 -7.93179,5.36432 -12.88947,5.36432 -4.89777,0 -9.11987,-1.77261 -12.6651,-5.31955 -3.54584,-3.54581 -5.31845,-7.78299 -5.31845,-12.71213 0,-4.92859 1.77261,-9.19598 5.31845,-12.80273 3.4552,-3.48651 7.67725,-5.22894 12.6651,-5.22894 5.04829,0 9.31401,1.74243 12.79942,5.22894 z m -23.11798,2.34485 c -2.94675,2.97638 -4.41956,6.46289 -4.41956,10.46234 0,3.99835 1.45828,7.4552 4.37424,10.37067 2.91653,2.9165 6.38849,4.37476 10.41705,4.37476 4.02853,0 7.53018,-1.47281 10.50656,-4.41901 2.8259,-2.73584 4.23941,-6.17706 4.23941,-10.32642 0,-4.11804 -1.43646,-7.61292 -4.30768,-10.48474 -2.87064,-2.87067 -6.34988,-4.30652 -10.43829,-4.30652 -4.08837,0 -7.54638,1.44318 -10.37173,4.32892 z m 7.75449,8.70312 c -0.45032,-0.98163 -1.12433,-1.47223 -2.02325,-1.47223 -1.58914,0 -2.38342,1.06952 -2.38342,3.2085 0,2.13959 0.79428,3.20911 2.38342,3.20911 1.04938,0 1.79895,-0.5213 2.24866,-1.56512 l 2.20276,1.17303 c -1.04993,1.86548 -2.62506,2.79901 -4.72549,2.79901 -1.6199,0 -2.91763,-0.4967 -3.89206,-1.48956 -0.97607,-0.99341 -1.46274,-2.36273 -1.46274,-4.10797 0,-1.71558 0.50229,-3.07709 1.50748,-4.08563 1.00519,-1.00793 2.25705,-1.51251 3.75781,-1.51251 2.22012,0 3.80984,0.87488 4.77081,2.62286 z m 10.36334,0 c -0.45087,-0.98163 -1.11148,-1.47223 -1.98239,-1.47223 -1.62106,0 -2.43213,1.06952 -2.43213,3.2085 0,2.13959 0.81107,3.20911 2.43213,3.20911 1.05103,0 1.78717,-0.5213 2.20724,-1.56512 l 2.25201,1.17303 c -1.04825,1.86548 -2.62119,2.79901 -4.71768,2.79901 -1.61771,0 -2.91263,-0.4967 -3.88647,-1.48956 -0.97217,-0.99341 -1.45938,-2.36273 -1.45938,-4.10797 0,-1.71558 0.49448,-3.07709 1.48288,-4.08563 0.98782,-1.00793 2.24527,-1.51251 3.77347,-1.51251 2.21619,0 3.80368,0.87488 4.76132,2.62286 z" />
        </g>
      </g>
      <path
         d="M 297.29639,74.91064 H 181.06688 c -1.24658,0 -2.26074,1.01465 -2.26074,2.26123 v 39.49561 c 0,0.28174 0.22852,0.51074 0.51025,0.51074 h 119.73 c 0.28174,0 0.51074,-0.229 0.51074,-0.51074 v -39.4956 c 0,-1.24659 -1.01416,-2.26124 -2.26074,-2.26124 z m -116.22951,1.02149 h 116.22951 c 0.68359,0 1.23926,0.55615 1.23926,1.23975 0,0 0,15.91943 0,27.41846 H 215.4619 c -3.04492,5.50537 -8.91113,9.24365 -15.64355,9.24365 -6.73535,0 -12.6001,-3.73486 -15.64355,-9.24365 h -4.34814 c 0,-11.49902 0,-27.41846 0,-27.41846 -2e-5,-0.6836 0.55663,-1.23975 1.24022,-1.23975 z"
         id="path294" />
      <g
         enable-background="new    "
         id="g296">
        <path
           d="m 265.60986,112.8833 c 0.0801,0.15576 0.1875,0.28174 0.32129,0.37842 0.13379,0.0962 0.29004,0.16797 0.46973,0.21436 0.18066,0.0469 0.36719,0.0703 0.55957,0.0703 0.12988,0 0.26953,-0.0107 0.41895,-0.0327 0.14844,-0.0215 0.28809,-0.064 0.41895,-0.12598 0.12988,-0.062 0.23926,-0.14795 0.3252,-0.25684 0.0879,-0.10889 0.13086,-0.24707 0.13086,-0.41553 0,-0.18018 -0.0576,-0.32617 -0.17285,-0.43848 -0.11426,-0.1123 -0.26562,-0.20508 -0.45215,-0.28027 -0.18555,-0.0742 -0.39746,-0.13965 -0.63281,-0.1958 -0.23633,-0.0562 -0.47559,-0.11816 -0.71777,-0.18701 -0.24902,-0.062 -0.49121,-0.13818 -0.72754,-0.22852 -0.23535,-0.0898 -0.44727,-0.20703 -0.63379,-0.3501 -0.18652,-0.14307 -0.33691,-0.32178 -0.45215,-0.53662 -0.11426,-0.21484 -0.17188,-0.47461 -0.17188,-0.7793 0,-0.34277 0.0732,-0.63965 0.21875,-0.8916 0.14648,-0.25195 0.33789,-0.46191 0.57422,-0.63037 0.23535,-0.16797 0.50293,-0.29248 0.80176,-0.37354 0.29785,-0.0806 0.59668,-0.12109 0.89453,-0.12109 0.34863,0 0.68262,0.0391 1.00293,0.11719 0.31934,0.0776 0.60449,0.2041 0.85254,0.37842 0.24902,0.17432 0.44629,0.39697 0.59277,0.66797 0.14551,0.271 0.21875,0.59961 0.21875,0.98535 h -1.42188 c -0.0127,-0.19922 -0.0547,-0.36426 -0.125,-0.49463 -0.0713,-0.13086 -0.16602,-0.2334 -0.2832,-0.30859 -0.11816,-0.0742 -0.25293,-0.12744 -0.4043,-0.1582 -0.15234,-0.0312 -0.31738,-0.0469 -0.49707,-0.0469 -0.11719,0 -0.23535,0.0127 -0.35254,0.0371 -0.11816,0.0254 -0.22461,0.0688 -0.32031,0.13086 -0.0967,0.0625 -0.17578,0.14014 -0.2373,0.2334 -0.0615,0.0937 -0.0928,0.21191 -0.0928,0.35498 0,0.13086 0.0244,0.23682 0.0742,0.31738 0.0498,0.0811 0.14844,0.15576 0.29395,0.22412 0.14551,0.0684 0.34766,0.13721 0.60547,0.20557 0.25781,0.0684 0.59473,0.15576 1.01172,0.26123 0.12402,0.0249 0.2959,0.0703 0.5166,0.13574 0.2207,0.0654 0.43945,0.16943 0.65723,0.3125 0.21777,0.14355 0.40527,0.33496 0.56445,0.57422 0.1582,0.23975 0.2373,0.54639 0.2373,0.91992 0,0.30518 -0.0596,0.58838 -0.17773,0.84961 -0.11816,0.26172 -0.29395,0.4873 -0.52734,0.67676 -0.2334,0.19043 -0.52246,0.33789 -0.86719,0.44385 -0.3457,0.10596 -0.74609,0.15869 -1.19922,0.15869 -0.36719,0 -0.72363,-0.0454 -1.06934,-0.13574 -0.34473,-0.0903 -0.65039,-0.23242 -0.91504,-0.42578 -0.26367,-0.19336 -0.47363,-0.43994 -0.62988,-0.73877 -0.15527,-0.29932 -0.22949,-0.65381 -0.22363,-1.06494 h 1.42188 c -3e-5,0.22412 0.04,0.41406 0.12106,0.56933 z"
           id="path298"
           style="fill:#ffffff" />
        <path
           d="m 273.8667,107.8667 2.49316,6.66406 h -1.52246 l -0.50391,-1.48438 h -2.49316 l -0.52246,1.48438 h -1.47461 l 2.52051,-6.66406 z m 0.084,4.08594 -0.83984,-2.44336 h -0.0186 l -0.86914,2.44336 z"
           id="path300"
           style="fill:#ffffff" />
      </g>
      <g
         enable-background="new    "
         id="g302">
        <path
           d="m 239.17821,107.8667 c 0.31738,0 0.60742,0.0283 0.86914,0.084 0.26172,0.0561 0.48633,0.14795 0.67383,0.27539 0.18652,0.12744 0.33203,0.29688 0.43457,0.5083 0.10254,0.21142 0.1543,0.47266 0.1543,0.78369 0,0.33594 -0.0762,0.61523 -0.22949,0.83936 -0.15234,0.22412 -0.37891,0.40723 -0.67773,0.55029 0.41211,0.11816 0.71973,0.3252 0.92285,0.62109 0.20312,0.29589 0.30469,0.65234 0.30469,1.06934 0,0.33594 -0.0654,0.62695 -0.19629,0.87305 -0.13086,0.24561 -0.30762,0.44629 -0.52832,0.60205 -0.22168,0.15576 -0.47461,0.271 -0.75781,0.34521 -0.28418,0.0752 -0.5752,0.1123 -0.875,0.1123 h -3.23633 v -6.66406 h 3.14159 z m -0.1875,2.69531 c 0.26172,0 0.47656,-0.062 0.64551,-0.18604 0.16797,-0.12451 0.25195,-0.32568 0.25195,-0.60498 0,-0.15527 -0.0283,-0.28271 -0.084,-0.38184 -0.0566,-0.0996 -0.13086,-0.17676 -0.22461,-0.23291 -0.0937,-0.0557 -0.20117,-0.0947 -0.32227,-0.11621 -0.12207,-0.022 -0.24805,-0.0327 -0.37891,-0.0327 h -1.37305 v 1.55469 z m 0.0859,2.82813 c 0.14355,0 0.28027,-0.0137 0.41113,-0.042 0.13086,-0.0278 0.24707,-0.0747 0.34668,-0.13965 0.0996,-0.0654 0.17871,-0.1543 0.23828,-0.26611 0.0596,-0.11181 0.0889,-0.25488 0.0889,-0.4292 0,-0.3418 -0.0967,-0.58594 -0.29004,-0.73193 -0.19336,-0.14599 -0.44922,-0.21924 -0.7666,-0.21924 h -1.59961 v 1.82812 z"
           id="path304"
           style="fill:#ffffff" />
        <path
           d="m 241.88914,107.8667 h 1.64355 l 1.56055,2.63184 1.55078,-2.63184 h 1.63379 l -2.47363,4.10645 v 2.55762 h -1.46875 v -2.59473 z"
           id="path306"
           style="fill:#ffffff" />
      </g>
      <g
         id="g6316_1_"
         transform="matrix(0.624995,0,0,0.624995,391.2294,176.9332)">
        <path
           id="path6318_1_"
           cx="475.97119"
           ry="29.209877"
           cy="252.08646"
           type="arc"
           rx="29.209877"
           d="m -175.0083,-139.1153 c 0.006,9.4118 -7.61725,17.04779 -17.02982,17.05481 -9.41101,0.007 -17.047,-7.61725 -17.05481,-17.02979 0,-0.008 0,-0.0172 0,-0.025 -0.006,-9.41254 7.6188,-17.047 17.02982,-17.05481 9.41257,-0.007 17.04855,7.61804 17.05481,17.02985 0,0.009 0,0.0164 0,0.025 z"
           style="fill:#ffffff" />
        <g
           id="g6320_1_"
           transform="translate(-23.9521,-89.72962)">
          <path
             id="path6322_1_"
             d="m -168.2204,-68.05536 c -5.17194,0 -9.54852,1.80469 -13.13135,5.41333 -3.67661,3.73444 -5.51413,8.1532 -5.51413,13.25635 0,5.10315 1.83752,9.49152 5.51413,13.1626 3.67502,3.67194 8.05316,5.50787 13.13135,5.50787 5.14066,0 9.59537,-1.85156 13.36728,-5.55475 3.55005,-3.51562 5.3266,-7.88831 5.3266,-13.11572 0,-5.22662 -1.8078,-9.64697 -5.42191,-13.25635 -3.61407,-3.60864 -8.03756,-5.41333 -13.27197,-5.41333 z m 0.0469,3.36017 c 4.23752,0 7.836,1.49298 10.79697,4.48053 2.98907,2.9563 4.48441,6.56567 4.48441,10.82898 0,4.29382 -1.46252,7.85712 -4.39224,10.68915 -3.08438,3.04926 -6.71411,4.57349 -10.88913,4.57349 -4.17505,0 -7.7735,-1.5094 -10.79541,-4.52661 -3.02188,-3.01953 -4.53284,-6.59692 -4.53284,-10.73602 0,-4.13831 1.52658,-7.74847 4.57971,-10.82898 2.92815,-2.98756 6.51098,-4.48054 10.74853,-4.48054 z" />
          <path
             id="path6324_1_"
             d="m -176.49548,-52.02087 c 0.74377,-4.69769 4.05161,-7.20862 8.1954,-7.20862 5.96097,0 9.59225,4.32501 9.59225,10.09229 0,5.62738 -3.86411,9.99927 -9.686,9.99927 -4.00473,0 -7.58914,-2.46484 -8.24228,-7.30084 h 4.70319 c 0.14062,2.51099 1.77032,3.39459 4.09845,3.39459 2.65317,0 4.37817,-2.4649 4.37817,-6.23291 0,-3.95233 -1.49063,-6.04535 -4.28598,-6.04535 -2.04846,0 -3.8172,0.74457 -4.19064,3.30157 l 1.36874,-0.007 -3.70316,3.7016 -3.7016,-3.7016 z" />
        </g>
      </g>
      <g
         id="g313">
        <circle
           cx="242.56226"
           cy="90.224609"
           r="10.8064"
           id="circle315"
           style="fill:#ffffff" />
        <g
           id="g317">
          <path
             d="m 245.68994,87.09766 c 0,-0.4165 -0.33789,-0.75342 -0.75391,-0.75342 h -4.77246 c -0.41602,0 -0.75391,0.33691 -0.75391,0.75342 v 4.77295 h 1.33105 v 5.65234 h 3.61719 v -5.65234 h 1.33203 v -4.77295 z"
             id="path319" />
          <circle
             cx="242.5498"
             cy="84.083008"
             r="1.63232"
             id="circle321" />
        </g>
        <path
           clip-rule="evenodd"
           d="m 242.53467,78.31836 c -3.23145,0 -5.96826,1.12744 -8.20752,3.38379 -2.29785,2.33301 -3.44629,5.09521 -3.44629,8.28418 0,3.18897 1.14844,5.93213 3.44629,8.22705 2.29785,2.29443 5.03418,3.44189 8.20752,3.44189 3.21289,0 5.99805,-1.15674 8.35352,-3.47168 2.2207,-2.19678 3.33008,-4.92969 3.33008,-8.19727 0,-3.26758 -1.12891,-6.02881 -3.3877,-8.28418 -2.25879,-2.25634 -5.02442,-3.38378 -8.2959,-3.38378 z m 0.0293,2.09961 c 2.64844,0 4.89746,0.93359 6.74707,2.80078 1.87012,1.84717 2.80469,4.10352 2.80469,6.76758 0,2.68359 -0.91504,4.91113 -2.74609,6.68066 -1.92773,1.90576 -4.19629,2.8584 -6.80566,2.8584 -2.60937,0 -4.8584,-0.94287 -6.74658,-2.82959 -1.88965,-1.88623 -2.8335,-4.12256 -2.8335,-6.70947 0,-2.58643 0.9541,-4.84229 2.8623,-6.76758 1.83057,-1.86719 4.07031,-2.80078 6.71777,-2.80078 z"
           id="path323"
           style="fill-rule:evenodd" />
      </g>
    </g>
  </g>
</svg>
